<mxfile host="app.diagrams.net" modified="2022-05-13T03:05:21.448Z" agent="5.0 (Macintosh; Intel Mac OS X 10_15_7) AppleWebKit/537.36 (KHTML, like Gecko) Chrome/101.0.4951.64 Safari/537.36" etag="0z3h_cC9DOcIg3DXea-m" version="18.0.3" type="github">
  <diagram id="vYhIYeuhMKYq1YM2tLH0" name="Page-1">
    <mxGraphModel dx="2751" dy="2017" grid="1" gridSize="10" guides="1" tooltips="1" connect="1" arrows="1" fold="1" page="1" pageScale="1" pageWidth="850" pageHeight="1100" math="0" shadow="0">
      <root>
        <mxCell id="0" />
        <mxCell id="1" parent="0" />
        <mxCell id="_z4hVBfj4zbMvKIP9uUs-24" style="edgeStyle=orthogonalEdgeStyle;rounded=0;orthogonalLoop=1;jettySize=auto;html=1;exitX=0.5;exitY=1;exitDx=0;exitDy=0;entryX=0;entryY=0.5;entryDx=0;entryDy=0;entryPerimeter=0;fontSize=14;fontColor=#1A1A1A;startArrow=none;startFill=0;endArrow=classic;endFill=1;fontStyle=0" parent="1" source="_z4hVBfj4zbMvKIP9uUs-2" target="_z4hVBfj4zbMvKIP9uUs-9" edge="1">
          <mxGeometry relative="1" as="geometry" />
        </mxCell>
        <mxCell id="_z4hVBfj4zbMvKIP9uUs-25" value="Generate tasks UpdateNewPools, UpdateReserves, UpdateTotalSupply" style="edgeLabel;html=1;align=center;verticalAlign=middle;resizable=0;points=[];fontSize=14;fontColor=#1A1A1A;fontStyle=0" parent="_z4hVBfj4zbMvKIP9uUs-24" vertex="1" connectable="0">
          <mxGeometry x="0.2641" y="1" relative="1" as="geometry">
            <mxPoint x="153" y="-12" as="offset" />
          </mxGeometry>
        </mxCell>
        <mxCell id="_z4hVBfj4zbMvKIP9uUs-37" style="edgeStyle=none;rounded=0;orthogonalLoop=1;jettySize=auto;html=1;exitX=1;exitY=0.5;exitDx=0;exitDy=0;fontSize=14;fontColor=#1A1A1A;startArrow=none;startFill=0;endArrow=classic;endFill=1;entryX=0.006;entryY=0.534;entryDx=0;entryDy=0;entryPerimeter=0;" parent="1" source="_z4hVBfj4zbMvKIP9uUs-8" target="_z4hVBfj4zbMvKIP9uUs-33" edge="1">
          <mxGeometry relative="1" as="geometry">
            <mxPoint x="930" y="676" as="targetPoint" />
            <mxPoint x="770" y="731" as="sourcePoint" />
          </mxGeometry>
        </mxCell>
        <mxCell id="_z4hVBfj4zbMvKIP9uUs-47" value="Save whitelist pool" style="edgeLabel;html=1;align=center;verticalAlign=middle;resizable=0;points=[];fontSize=14;fontColor=#1A1A1A;" parent="_z4hVBfj4zbMvKIP9uUs-37" vertex="1" connectable="0">
          <mxGeometry x="-0.22" y="-1" relative="1" as="geometry">
            <mxPoint x="12" y="-11" as="offset" />
          </mxGeometry>
        </mxCell>
        <mxCell id="_z4hVBfj4zbMvKIP9uUs-8" value="Finding Route Service&#xa;Worker&#xa;&#xa;- Update whitelist pools &#xa;to sorted set" style="shape=module;align=left;spacingLeft=20;align=center;verticalAlign=top;fontSize=14;fontStyle=0;fillColor=#f8cecc;strokeColor=#b85450;" parent="1" vertex="1">
          <mxGeometry x="335" y="655.75" width="240" height="146.5" as="geometry" />
        </mxCell>
        <mxCell id="_z4hVBfj4zbMvKIP9uUs-22" value="" style="group;fontStyle=0;fillColor=#f5f5f5;fontColor=#333333;strokeColor=none;fontSize=14;" parent="1" vertex="1" connectable="0">
          <mxGeometry x="130" y="420" width="650" height="150" as="geometry" />
        </mxCell>
        <mxCell id="_z4hVBfj4zbMvKIP9uUs-9" value="" style="strokeWidth=2;html=1;shape=mxgraph.flowchart.direct_data;whiteSpace=wrap;fontSize=14;fillColor=#A9C4EB;fontColor=#A9C4EB;fontStyle=0" parent="_z4hVBfj4zbMvKIP9uUs-22" vertex="1">
          <mxGeometry width="650" height="137.5" as="geometry" />
        </mxCell>
        <mxCell id="_z4hVBfj4zbMvKIP9uUs-18" value="&lt;font style=&quot;font-size: 14px;&quot;&gt;Update whitelist pool:&lt;br&gt;- Pool diff&lt;br style=&quot;font-size: 14px;&quot;&gt;&lt;/font&gt;" style="whiteSpace=wrap;html=1;aspect=fixed;fontSize=14;fillColor=#f5f5f5;spacingLeft=2;spacingBottom=2;spacingRight=2;spacingTop=2;strokeColor=#666666;fontStyle=0;fontColor=#333333;" parent="_z4hVBfj4zbMvKIP9uUs-22" vertex="1">
          <mxGeometry x="50" y="20.439999999999998" width="96.62" height="96.62" as="geometry" />
        </mxCell>
        <mxCell id="dA0qTiQmyfb9F_Z1exVK-7" value="&lt;font style=&quot;font-size: 14px;&quot;&gt;Update whitelist pool:&lt;br&gt;- Pool diff&lt;br style=&quot;font-size: 14px;&quot;&gt;&lt;/font&gt;" style="whiteSpace=wrap;html=1;aspect=fixed;fontSize=14;fillColor=#f5f5f5;spacingLeft=2;spacingBottom=2;spacingRight=2;spacingTop=2;strokeColor=#666666;fontStyle=0;fontColor=#333333;" parent="_z4hVBfj4zbMvKIP9uUs-22" vertex="1">
          <mxGeometry x="180" y="20.439999999999998" width="96.62" height="96.62" as="geometry" />
        </mxCell>
        <mxCell id="dA0qTiQmyfb9F_Z1exVK-8" value="&lt;font style=&quot;font-size: 14px;&quot;&gt;Update whitelist pool:&lt;br&gt;- Pool diff&lt;br style=&quot;font-size: 14px;&quot;&gt;&lt;/font&gt;" style="whiteSpace=wrap;html=1;aspect=fixed;fontSize=14;fillColor=#f5f5f5;spacingLeft=2;spacingBottom=2;spacingRight=2;spacingTop=2;strokeColor=#666666;fontStyle=0;fontColor=#333333;" parent="_z4hVBfj4zbMvKIP9uUs-22" vertex="1">
          <mxGeometry x="310" y="20.439999999999998" width="96.62" height="96.62" as="geometry" />
        </mxCell>
        <mxCell id="_z4hVBfj4zbMvKIP9uUs-26" style="rounded=0;orthogonalLoop=1;jettySize=auto;html=1;exitX=0.5;exitY=1;exitDx=0;exitDy=0;exitPerimeter=0;entryX=0.5;entryY=0;entryDx=0;entryDy=0;fontSize=14;fontColor=#1A1A1A;startArrow=none;startFill=0;endArrow=classic;endFill=1;" parent="1" source="_z4hVBfj4zbMvKIP9uUs-9" target="_z4hVBfj4zbMvKIP9uUs-8" edge="1">
          <mxGeometry relative="1" as="geometry" />
        </mxCell>
        <mxCell id="_z4hVBfj4zbMvKIP9uUs-30" value="Take task" style="edgeLabel;html=1;align=center;verticalAlign=middle;resizable=0;points=[];fontSize=14;fontColor=#1A1A1A;" parent="_z4hVBfj4zbMvKIP9uUs-26" vertex="1" connectable="0">
          <mxGeometry x="0.2021" relative="1" as="geometry">
            <mxPoint x="35" y="-6" as="offset" />
          </mxGeometry>
        </mxCell>
        <mxCell id="_z4hVBfj4zbMvKIP9uUs-44" style="edgeStyle=none;rounded=0;orthogonalLoop=1;jettySize=auto;html=1;fontSize=14;fontColor=#1A1A1A;startArrow=none;startFill=0;endArrow=classic;endFill=1;exitX=0;exitY=0;exitDx=0;exitDy=35;exitPerimeter=0;entryX=1.004;entryY=0.475;entryDx=0;entryDy=0;entryPerimeter=0;" parent="1" source="_z4hVBfj4zbMvKIP9uUs-42" target="_z4hVBfj4zbMvKIP9uUs-33" edge="1">
          <mxGeometry relative="1" as="geometry">
            <mxPoint x="1380" y="656" as="sourcePoint" />
            <mxPoint x="1110" y="656" as="targetPoint" />
          </mxGeometry>
        </mxCell>
        <mxCell id="_z4hVBfj4zbMvKIP9uUs-48" value="Finding route request" style="edgeLabel;html=1;align=center;verticalAlign=middle;resizable=0;points=[];fontSize=14;fontColor=#1A1A1A;" parent="_z4hVBfj4zbMvKIP9uUs-44" vertex="1" connectable="0">
          <mxGeometry x="-0.1312" relative="1" as="geometry">
            <mxPoint x="-13" y="-13" as="offset" />
          </mxGeometry>
        </mxCell>
        <mxCell id="_z4hVBfj4zbMvKIP9uUs-49" style="edgeStyle=none;rounded=0;orthogonalLoop=1;jettySize=auto;html=1;exitX=1.004;exitY=0.645;exitDx=0;exitDy=0;entryX=0.042;entryY=0.914;entryDx=0;entryDy=0;entryPerimeter=0;fontSize=14;fontColor=#1A1A1A;startArrow=none;startFill=0;endArrow=classic;endFill=1;exitPerimeter=0;" parent="1" edge="1">
          <mxGeometry relative="1" as="geometry">
            <mxPoint x="1211.08" y="754.875" as="sourcePoint" />
            <mxPoint x="1459.0299999999997" y="756.54" as="targetPoint" />
          </mxGeometry>
        </mxCell>
        <mxCell id="_z4hVBfj4zbMvKIP9uUs-50" value="Route response" style="edgeLabel;html=1;align=center;verticalAlign=middle;resizable=0;points=[];fontSize=14;fontColor=#1A1A1A;" parent="1" vertex="1" connectable="0">
          <mxGeometry x="1330" y="773" as="geometry" />
        </mxCell>
        <mxCell id="4Exm1XWhO8w6I6COdfnv-13" style="edgeStyle=orthogonalEdgeStyle;rounded=0;orthogonalLoop=1;jettySize=auto;html=1;entryX=0.5;entryY=0;entryDx=0;entryDy=0;entryPerimeter=0;fontSize=14;startArrow=classic;startFill=1;endArrow=none;endFill=0;" parent="1" source="_z4hVBfj4zbMvKIP9uUs-51" target="4Exm1XWhO8w6I6COdfnv-8" edge="1">
          <mxGeometry relative="1" as="geometry" />
        </mxCell>
        <mxCell id="_z4hVBfj4zbMvKIP9uUs-51" value="" style="outlineConnect=0;dashed=0;verticalLabelPosition=bottom;verticalAlign=top;align=center;html=1;shape=mxgraph.aws3.management_console;fillColor=#D2D3D3;gradientColor=none;fontSize=14;fontColor=#1A1A1A;strokeColor=#1A1A1A;" parent="1" vertex="1">
          <mxGeometry x="2113.75" y="520" width="63" height="63" as="geometry" />
        </mxCell>
        <mxCell id="4Exm1XWhO8w6I6COdfnv-14" style="edgeStyle=orthogonalEdgeStyle;rounded=0;orthogonalLoop=1;jettySize=auto;html=1;entryX=1;entryY=0.8;entryDx=0;entryDy=0;entryPerimeter=0;fontSize=14;startArrow=classic;startFill=1;endArrow=none;endFill=0;" parent="1" source="_z4hVBfj4zbMvKIP9uUs-52" target="4Exm1XWhO8w6I6COdfnv-8" edge="1">
          <mxGeometry relative="1" as="geometry" />
        </mxCell>
        <mxCell id="_z4hVBfj4zbMvKIP9uUs-52" value="" style="outlineConnect=0;dashed=0;verticalLabelPosition=bottom;verticalAlign=top;align=center;html=1;shape=mxgraph.aws3.mobile_client;fillColor=#D2D3D3;gradientColor=none;fontSize=14;fontColor=#1A1A1A;strokeColor=#1A1A1A;" parent="1" vertex="1">
          <mxGeometry x="2125" y="724" width="40.5" height="63" as="geometry" />
        </mxCell>
        <mxCell id="4Exm1XWhO8w6I6COdfnv-6" value="Tasks Queue" style="text;html=1;align=center;verticalAlign=middle;resizable=0;points=[];autosize=1;strokeColor=none;fillColor=none;fontSize=14;" parent="1" vertex="1">
          <mxGeometry x="185" y="396" width="100" height="20" as="geometry" />
        </mxCell>
        <mxCell id="4Exm1XWhO8w6I6COdfnv-11" value="" style="group;fontSize=14;" parent="1" vertex="1" connectable="0">
          <mxGeometry x="1730" y="682" width="115" height="129" as="geometry" />
        </mxCell>
        <mxCell id="4Exm1XWhO8w6I6COdfnv-8" value="" style="outlineConnect=0;dashed=0;verticalLabelPosition=bottom;verticalAlign=top;align=center;html=1;shape=mxgraph.aws3.api_gateway;fillColor=#D9A741;gradientColor=none;fontSize=14;" parent="4Exm1XWhO8w6I6COdfnv-11" vertex="1">
          <mxGeometry x="16.75" width="76.5" height="93" as="geometry" />
        </mxCell>
        <mxCell id="4Exm1XWhO8w6I6COdfnv-9" value="REST API" style="text;html=1;align=center;verticalAlign=middle;resizable=0;points=[];autosize=1;strokeColor=none;fillColor=none;fontSize=14;" parent="4Exm1XWhO8w6I6COdfnv-11" vertex="1">
          <mxGeometry x="15" y="109" width="80" height="20" as="geometry" />
        </mxCell>
        <mxCell id="4Exm1XWhO8w6I6COdfnv-12" style="edgeStyle=orthogonalEdgeStyle;rounded=0;orthogonalLoop=1;jettySize=auto;html=1;entryX=1;entryY=0.5;entryDx=0;entryDy=0;fontSize=14;startArrow=classic;startFill=1;endArrow=none;endFill=0;" parent="1" source="4Exm1XWhO8w6I6COdfnv-8" target="_z4hVBfj4zbMvKIP9uUs-42" edge="1">
          <mxGeometry relative="1" as="geometry" />
        </mxCell>
        <mxCell id="4Exm1XWhO8w6I6COdfnv-16" value="Serve HTTP requests" style="edgeLabel;html=1;align=center;verticalAlign=middle;resizable=0;points=[];fontSize=14;" parent="4Exm1XWhO8w6I6COdfnv-12" vertex="1" connectable="0">
          <mxGeometry x="-0.0051" y="1" relative="1" as="geometry">
            <mxPoint x="254" y="13" as="offset" />
          </mxGeometry>
        </mxCell>
        <mxCell id="4Exm1XWhO8w6I6COdfnv-19" value="Serve HTTP requests" style="edgeLabel;html=1;align=center;verticalAlign=middle;resizable=0;points=[];fontSize=14;" parent="1" vertex="1" connectable="0">
          <mxGeometry x="1950.0041390480517" y="540.0035350167295" as="geometry" />
        </mxCell>
        <mxCell id="dA0qTiQmyfb9F_Z1exVK-1" style="edgeStyle=orthogonalEdgeStyle;rounded=0;orthogonalLoop=1;jettySize=auto;html=1;exitX=0;exitY=0;exitDx=0;exitDy=35;exitPerimeter=0;entryX=1;entryY=0.25;entryDx=0;entryDy=0;fontSize=14;" parent="1" source="_z4hVBfj4zbMvKIP9uUs-2" target="aZn6d07xEl0mu3PDbsl8-1" edge="1">
          <mxGeometry relative="1" as="geometry" />
        </mxCell>
        <mxCell id="yiroWlup7vUDiORDAGEy-4" style="edgeStyle=orthogonalEdgeStyle;rounded=0;orthogonalLoop=1;jettySize=auto;html=1;exitX=0.5;exitY=0;exitDx=0;exitDy=0;entryX=1;entryY=0.25;entryDx=0;entryDy=0;fontSize=14;" edge="1" parent="1" source="_z4hVBfj4zbMvKIP9uUs-2" target="yiroWlup7vUDiORDAGEy-3">
          <mxGeometry relative="1" as="geometry" />
        </mxCell>
        <mxCell id="yiroWlup7vUDiORDAGEy-5" value="On init: Get all pools" style="edgeLabel;html=1;align=center;verticalAlign=middle;resizable=0;points=[];fontSize=14;" vertex="1" connectable="0" parent="yiroWlup7vUDiORDAGEy-4">
          <mxGeometry x="0.6989" y="-5" relative="1" as="geometry">
            <mxPoint x="80" y="-10" as="offset" />
          </mxGeometry>
        </mxCell>
        <mxCell id="_z4hVBfj4zbMvKIP9uUs-2" value="Finding Route Service&#xa;Master" style="shape=module;align=left;spacingLeft=20;align=center;verticalAlign=top;fontSize=14;fontStyle=0;fillColor=#d5e8d4;strokeColor=#82b366;container=0;" parent="1" vertex="1">
          <mxGeometry x="610" y="173" width="215" height="110" as="geometry" />
        </mxCell>
        <mxCell id="h-ajWF4TZE72JSI5Cl-C-11" value="" style="group;fontSize=14;" parent="1" vertex="1" connectable="0">
          <mxGeometry x="940" y="531" width="270" height="375" as="geometry" />
        </mxCell>
        <mxCell id="_z4hVBfj4zbMvKIP9uUs-33" value="" style="shape=datastore;whiteSpace=wrap;html=1;fontSize=14;fontColor=#1A1A1A;strokeColor=#1A1A1A;fillColor=#A9C4EB;container=0;" parent="h-ajWF4TZE72JSI5Cl-C-11" vertex="1">
          <mxGeometry width="270" height="375" as="geometry" />
        </mxCell>
        <mxCell id="_z4hVBfj4zbMvKIP9uUs-34" value="" style="sketch=0;aspect=fixed;html=1;points=[];align=center;image;fontSize=14;image=img/lib/mscae/Cache_Redis_Product.svg;fontColor=#1A1A1A;strokeColor=#1A1A1A;fillColor=#A9C4EB;container=0;direction=south;rotation=-89;" parent="h-ajWF4TZE72JSI5Cl-C-11" vertex="1">
          <mxGeometry x="75.00411764705882" y="16.00454545454545" width="42" height="50" as="geometry" />
        </mxCell>
        <mxCell id="4Exm1XWhO8w6I6COdfnv-1" value="Redis" style="text;html=1;align=center;verticalAlign=middle;resizable=0;points=[];autosize=1;strokeColor=none;fillColor=none;fontSize=14;container=0;" parent="h-ajWF4TZE72JSI5Cl-C-11" vertex="1">
          <mxGeometry x="130" y="31" width="50" height="20" as="geometry" />
        </mxCell>
        <mxCell id="4Exm1XWhO8w6I6COdfnv-2" value="Sorted Sets: Whitelist pools&amp;nbsp;" style="ellipse;whiteSpace=wrap;html=1;fillColor=#fff2cc;strokeColor=#d6b656;fontSize=14;container=0;" parent="h-ajWF4TZE72JSI5Cl-C-11" vertex="1">
          <mxGeometry x="75" y="159" width="120" height="80" as="geometry" />
        </mxCell>
        <mxCell id="dA0qTiQmyfb9F_Z1exVK-14" value="Sorted Sets: Whitelist pools&amp;nbsp;" style="ellipse;whiteSpace=wrap;html=1;fillColor=#fff2cc;strokeColor=#d6b656;fontSize=14;container=0;" parent="h-ajWF4TZE72JSI5Cl-C-11" vertex="1">
          <mxGeometry x="75" y="259" width="120" height="80" as="geometry" />
        </mxCell>
        <mxCell id="aZn6d07xEl0mu3PDbsl8-3" value="" style="group;fontSize=14;" parent="1" vertex="1" connectable="0">
          <mxGeometry x="-280" y="134" width="162" height="210" as="geometry" />
        </mxCell>
        <mxCell id="aZn6d07xEl0mu3PDbsl8-1" value="" style="editableCssRules=.*;shape=image;verticalLabelPosition=bottom;labelBackgroundColor=#ffffff;verticalAlign=top;aspect=fixed;imageAspect=0;image=data:image/svg+xml,PHN2ZyB4bWxucz0iaHR0cDovL3d3dy53My5vcmcvMjAwMC9zdmciIHhtbG5zOnY9Imh0dHBzOi8vdmVjdGEuaW8vbmFubyIgd2lkdGg9IjE4LjMxOTk5OTY5NDgyNDIyIiBoZWlnaHQ9IjIwLjAwMDAwMTkwNzM0ODYzMyIgdmlld0JveD0iMCAwIDE4LjMxOTk5OTY5NDgyNDIyIDIwLjAwMDAwMTkwNzM0ODYzMyI+JiN4YTsJPHN0eWxlIHR5cGU9InRleHQvY3NzIj4mI3hhOwkuc3Qwe2ZpbGw6IzY2OWRmNjt9JiN4YTsJLnN0MXtmaWxsOiM0Mjg1ZjQ7fSYjeGE7CS5zdDJ7ZmlsbDojYWVjYmZhO30mI3hhOwk8L3N0eWxlPiYjeGE7CTxkZWZzPiYjeGE7CQk8ZmlsdGVyIGlkPSJBIiB4PSI0LjY0IiB5PSI0LjE5IiB3aWR0aD0iMTQuNzMiIGhlaWdodD0iMTIuNzYiIGZpbHRlclVuaXRzPSJ1c2VyU3BhY2VPblVzZSIgY29sb3ItaW50ZXJwb2xhdGlvbi1maWx0ZXJzPSJzUkdCIj4mI3hhOwkJCTxmZUZsb29kIGZsb29kLWNvbG9yPSIjZmZmIi8+JiN4YTsJCQk8ZmVCbGVuZCBpbj0iU291cmNlR3JhcGhpYyIvPiYjeGE7CQk8L2ZpbHRlcj4mI3hhOwkJPG1hc2sgaWQ9IkIiIHg9IjQuNjQiIHk9IjQuMTkiIHdpZHRoPSIxNC43MyIgaGVpZ2h0PSIxMi43NiIgbWFza1VuaXRzPSJ1c2VyU3BhY2VPblVzZSI+JiN4YTsJCQk8Y2lyY2xlIGN4PSIxMiIgY3k9IjEyLjIzIiByPSIzLjU4IiBmaWx0ZXI9InVybCgjQSkiLz4mI3hhOwkJPC9tYXNrPiYjeGE7CTwvZGVmcz4mI3hhOwk8ZyBjbGFzcz0ic3QwIj4mI3hhOwkJPGNpcmNsZSBjeD0iMTYuMTMiIGN5PSI2LjIxIiByPSIxLjcyIi8+JiN4YTsJCTxjaXJjbGUgY3g9IjIuMTkiIGN5PSI2LjIxIiByPSIxLjcyIi8+JiN4YTsJCTxjaXJjbGUgY3g9IjkuMTYiIGN5PSIxOC4yOCIgcj0iMS43MiIvPiYjeGE7CTwvZz4mI3hhOwk8ZyBtYXNrPSJ1cmwoI0IpIiB0cmFuc2Zvcm09InRyYW5zbGF0ZSgtMi44NCAtMikiPiYjeGE7CQk8cGF0aCB0cmFuc2Zvcm09Im1hdHJpeCguNSAtLjg3IC44NyAuNSAtNC41OSAyMC41MykiIGQ9Ik0xNC42OSAxMC4yMmgxLjU5djguMDRoLTEuNTl6IiBjbGFzcz0ic3QxIi8+JiN4YTsJCTxwYXRoIHRyYW5zZm9ybT0icm90YXRlKDMzMCA4LjUyMyAxNC4yNDQpIiBkPSJNNC40OSAxMy40NWg4LjA0djEuNTlINC40OXoiIGNsYXNzPSJzdDEiLz4mI3hhOwkJPHBhdGggZD0iTTExLjIgNC4xOWgxLjU5djguMDRIMTEuMnoiIGNsYXNzPSJzdDEiLz4mI3hhOwk8L2c+JiN4YTsJPGcgY2xhc3M9InN0MiI+JiN4YTsJCTxjaXJjbGUgY3g9IjkuMTYiIGN5PSIxMC4yMyIgcj0iMi43OCIvPiYjeGE7CQk8Y2lyY2xlIGN4PSIyLjE5IiBjeT0iMTQuMjUiIHI9IjIuMTkiLz4mI3hhOwkJPGNpcmNsZSBjeD0iMTYuMTMiIGN5PSIxNC4yNSIgcj0iMi4xOSIvPiYjeGE7CQk8Y2lyY2xlIGN4PSI5LjE2IiBjeT0iMi4xOSIgcj0iMi4xOSIvPiYjeGE7CTwvZz4mI3hhOzwvc3ZnPg==;fontSize=14;" parent="aZn6d07xEl0mu3PDbsl8-3" vertex="1">
          <mxGeometry y="30" width="162" height="180" as="geometry" />
        </mxCell>
        <mxCell id="aZn6d07xEl0mu3PDbsl8-2" value="Pubsub" style="text;html=1;align=center;verticalAlign=middle;resizable=0;points=[];autosize=1;strokeColor=none;fillColor=none;fontSize=14;" parent="aZn6d07xEl0mu3PDbsl8-3" vertex="1">
          <mxGeometry x="51" width="60" height="20" as="geometry" />
        </mxCell>
        <mxCell id="dA0qTiQmyfb9F_Z1exVK-2" value="Consume pool diffs" style="text;html=1;align=center;verticalAlign=middle;resizable=0;points=[];autosize=1;strokeColor=none;fillColor=none;fontSize=14;" parent="1" vertex="1">
          <mxGeometry x="385" y="180" width="140" height="20" as="geometry" />
        </mxCell>
        <mxCell id="_z4hVBfj4zbMvKIP9uUs-42" value="Finding Route API&#xa; Service" style="shape=module;align=left;spacingLeft=20;align=center;verticalAlign=top;fontSize=14;fontStyle=0;fillColor=#d5e8d4;strokeColor=#82b366;container=0;" parent="1" vertex="1">
          <mxGeometry x="1450" y="674" width="215" height="110" as="geometry" />
        </mxCell>
        <mxCell id="yiroWlup7vUDiORDAGEy-6" style="edgeStyle=orthogonalEdgeStyle;rounded=0;orthogonalLoop=1;jettySize=auto;html=1;exitX=1;exitY=0.75;exitDx=0;exitDy=0;entryX=0.25;entryY=0;entryDx=0;entryDy=0;fontSize=14;" edge="1" parent="1" source="yiroWlup7vUDiORDAGEy-3" target="_z4hVBfj4zbMvKIP9uUs-2">
          <mxGeometry relative="1" as="geometry" />
        </mxCell>
        <mxCell id="yiroWlup7vUDiORDAGEy-7" value="Return all pools" style="edgeLabel;html=1;align=center;verticalAlign=middle;resizable=0;points=[];fontSize=14;" vertex="1" connectable="0" parent="yiroWlup7vUDiORDAGEy-6">
          <mxGeometry x="-0.6444" y="-5" relative="1" as="geometry">
            <mxPoint x="68" y="10" as="offset" />
          </mxGeometry>
        </mxCell>
        <mxCell id="yiroWlup7vUDiORDAGEy-3" value="Pool service" style="rounded=0;whiteSpace=wrap;html=1;fontSize=14;" vertex="1" parent="1">
          <mxGeometry x="210" y="-50" width="120" height="60" as="geometry" />
        </mxCell>
      </root>
    </mxGraphModel>
  </diagram>
</mxfile>
